<svg width="28" height="28" viewBox="0 0 28 28" fill="none" xmlns="http://www.w3.org/2000/svg">
<path d="M18.0565 15.0383L19.824 24.9853C19.8438 25.1025 19.8274 25.2228 19.7769 25.3304C19.7264 25.4379 19.6443 25.5275 19.5416 25.5871C19.4389 25.6467 19.3204 25.6735 19.202 25.664C19.0835 25.6544 18.9709 25.609 18.879 25.5337L14.7023 22.3988C14.5007 22.2482 14.2558 22.1668 14.0041 22.1668C13.7524 22.1668 13.5075 22.2482 13.3058 22.3988L9.12218 25.5325C9.03039 25.6077 8.91785 25.6531 8.79959 25.6626C8.68133 25.6722 8.56297 25.6455 8.46029 25.586C8.35761 25.5266 8.2755 25.4372 8.22492 25.3299C8.17434 25.2226 8.15768 25.1024 8.17718 24.9853L9.94351 15.0383" stroke="white" stroke-width="2.33333" stroke-linecap="round" stroke-linejoin="round"/>
<path d="M14 16.3334C17.866 16.3334 21 13.1994 21 9.33337C21 5.46738 17.866 2.33337 14 2.33337C10.134 2.33337 7 5.46738 7 9.33337C7 13.1994 10.134 16.3334 14 16.3334Z" stroke="white" stroke-width="2.33333" stroke-linecap="round" stroke-linejoin="round"/>
</svg>
