<svg width="28" height="28" viewBox="0 0 28 28" fill="none" xmlns="http://www.w3.org/2000/svg">
<path d="M5.25 19.25C3.5 20.72 2.91667 25.0833 2.91667 25.0833C2.91667 25.0833 7.28 24.5 8.75 22.75C9.57833 21.77 9.56667 20.265 8.645 19.355C8.19153 18.9222 7.59418 18.6721 6.9676 18.6527C6.34102 18.6333 5.72936 18.846 5.25 19.25Z" stroke="white" stroke-width="2.33333" stroke-linecap="round" stroke-linejoin="round"/>
<path d="M14 17.5L10.5 14C11.1208 12.3893 11.9026 10.8454 12.8333 9.39163C14.1927 7.21811 16.0856 5.42852 18.3318 4.19307C20.5781 2.95762 23.1031 2.3174 25.6667 2.3333C25.6667 5.50663 24.7567 11.0833 18.6667 15.1666C17.193 16.0985 15.6297 16.8802 14 17.5Z" stroke="white" stroke-width="2.33333" stroke-linecap="round" stroke-linejoin="round"/>
<path d="M10.5 14H4.66667C4.66667 14 5.30833 10.465 7 9.33332C8.89 8.07332 12.8333 9.33332 12.8333 9.33332" stroke="white" stroke-width="2.33333" stroke-linecap="round" stroke-linejoin="round"/>
<path d="M14 17.5V23.3333C14 23.3333 17.535 22.6916 18.6667 21C19.9267 19.11 18.6667 15.1666 18.6667 15.1666" stroke="white" stroke-width="2.33333" stroke-linecap="round" stroke-linejoin="round"/>
</svg>
